<svg width="75" height="73" viewBox="0 0 75 73" fill="none" xmlns="http://www.w3.org/2000/svg">
<g clip-path="url(#clip0_204_78)">
<path d="M66.625 33.4583H61.75V21.2917C61.75 17.9458 58.825 15.2083 55.25 15.2083H42.25V10.6458C42.25 6.44833 38.61 3.04167 34.125 3.04167C29.64 3.04167 26 6.44833 26 10.6458V15.2083H13C9.425 15.2083 6.5325 17.9458 6.5325 21.2917V32.85H11.375C16.2175 32.85 20.15 36.5304 20.15 41.0625C20.15 45.5946 16.2175 49.275 11.375 49.275H6.5V60.8333C6.5 64.1792 9.425 66.9167 13 66.9167H25.35V62.3542C25.35 57.8221 29.2825 54.1417 34.125 54.1417C38.9675 54.1417 42.9 57.8221 42.9 62.3542V66.9167H55.25C58.825 66.9167 61.75 64.1792 61.75 60.8333V48.6667H66.625C71.11 48.6667 74.75 45.26 74.75 41.0625C74.75 36.865 71.11 33.4583 66.625 33.4583Z" fill="white" fill-opacity="0.8"/>
</g>
<defs>
<clipPath id="clip0_204_78">
<rect width="75" height="73" fill="white"/>
</clipPath>
</defs>
</svg>
