<svg width="66" height="59" viewBox="0 0 66 59" fill="none" xmlns="http://www.w3.org/2000/svg">
<path d="M59 12.5H51.915C52.2725 11.5442 52.5 10.4958 52.5 9.41667C52.5 4.29834 48.145 0.166672 42.75 0.166672C39.3375 0.166672 36.38 1.83167 34.625 4.32917L33 6.395L31.375 4.29834C29.62 1.83167 26.6625 0.166672 23.25 0.166672C17.855 0.166672 13.5 4.29834 13.5 9.41667C13.5 10.4958 13.7275 11.5442 14.085 12.5H7C3.3925 12.5 0.5325 15.2442 0.5325 18.6667L0.5 52.5833C0.5 56.0058 3.3925 58.75 7 58.75H59C62.6075 58.75 65.5 56.0058 65.5 52.5833V18.6667C65.5 15.2442 62.6075 12.5 59 12.5ZM42.75 6.33334C44.5375 6.33334 46 7.72084 46 9.41667C46 11.1125 44.5375 12.5 42.75 12.5C40.9625 12.5 39.5 11.1125 39.5 9.41667C39.5 7.72084 40.9625 6.33334 42.75 6.33334ZM23.25 6.33334C25.0375 6.33334 26.5 7.72084 26.5 9.41667C26.5 11.1125 25.0375 12.5 23.25 12.5C21.4625 12.5 20 11.1125 20 9.41667C20 7.72084 21.4625 6.33334 23.25 6.33334ZM59 52.5833H7V46.4167H59V52.5833ZM59 37.1667H7V18.6667H23.51L16.75 27.3925L22.015 31L29.75 21.01L33 16.8167L36.25 21.01L43.985 31L49.25 27.3925L42.49 18.6667H59V37.1667Z" fill="white" fill-opacity="0.8"/>
</svg>
